<svg width="1400" height="800" viewBox="0 0 1400 800" fill="none" xmlns="http://www.w3.org/2000/svg">
<rect x="200" y="200" width="200" height="200" transform="rotate(180 200 200)" fill="#FFC1DA"/>
<path d="M600 0C600 26.2644 605.173 52.2716 615.224 76.5367C625.275 100.802 640.007 122.85 658.579 141.421C677.15 159.993 699.198 174.725 723.463 184.776C747.728 194.827 773.736 200 800 200L800 0H600Z" fill="#FFC1DA"/>
<path d="M0 100C0 44.7715 44.7715 0 100 0C155.228 0 200 44.7715 200 100V200H400V600H0V100Z" fill="#1D1F22"/>
<path d="M100 400C44.7715 400 0 444.772 0 500V800H200V500C200 444.772 155.228 400 100 400Z" fill="#FFC1DA"/>
<path d="M600 0H800V400H600V800H200L200 600C200 573.736 205.173 547.728 215.224 523.463C225.275 499.198 240.007 477.15 258.579 458.579C277.15 440.007 299.198 425.275 323.463 415.224C347.728 405.173 373.736 400 400 400L400 200H600V0Z" fill="#546EF3"/>
<path d="M400 700C400 644.772 444.772 600 500 600C555.228 600 600 644.772 600 700V800H400V700Z" fill="#FFC1DA"/>
<rect x="600" y="600" width="200" height="200" fill="#FFC1DA"/>
<path d="M1100 0C1044.77 0 1000 44.7715 1000 100V200H800V300C800 244.772 755.228 200 700 200C644.772 200 600 244.772 600 300V700C600 755.228 644.772 800 700 800C755.228 800 800 755.228 800 700V600H1000V400H1200V100C1200 44.7715 1155.23 0 1100 0Z" fill="#1D1F22"/>
<path d="M1100 300C1044.77 300 1000 344.772 1000 400C973.736 400 947.728 405.173 923.463 415.224C899.198 425.275 877.15 440.007 858.579 458.579C840.007 477.15 825.275 499.198 815.224 523.463C805.173 547.728 800 573.736 800 600V800H1000V600H1200V400C1200 344.772 1155.23 300 1100 300Z" fill="#546EF3"/>
<path d="M1200 600C1200 573.736 1194.83 547.728 1184.78 523.463C1174.72 499.198 1159.99 477.15 1141.42 458.579C1122.85 440.007 1100.8 425.275 1076.54 415.224C1052.27 405.173 1026.26 400 1000 400V800H1400V400H1200V600Z" fill="#FFC1DA"/>
<path d="M1400 0H1200V400C1200 455.228 1244.77 500 1300 500C1355.23 500 1400 455.228 1400 400V0Z" fill="#546EF3"/>
<path d="M600 0V200C600 226.264 594.827 252.272 584.776 276.537C574.725 300.802 559.993 322.85 541.421 341.421C522.85 359.993 500.802 374.725 476.537 384.776C452.272 394.827 426.264 400 400 400V0H600Z" fill="#FFC1DA"/>
<path d="M200 0H400V400C373.736 400 347.728 394.827 323.463 384.776C299.198 374.725 277.15 359.993 258.579 341.421C240.007 322.85 225.275 300.802 215.224 276.537C205.173 252.272 200 226.264 200 200V0Z" fill="#546EF3"/>
<path d="M800 0V300C800 355.228 844.772 400 900 400C955.228 400 1000 355.228 1000 300C1000 300 1000 240.5 1000 200C1000 159.5 1039 107.5 1099.5 107.5C1160 107.5 1200 150 1200 200C1200 224.5 1200 0 1200 0H800Z" fill="#FFC1DA"/>
<path d="M1000 0C1000 26.2644 994.827 52.2716 984.776 76.5367C974.725 100.802 959.993 122.85 941.421 141.421C922.85 159.993 900.802 174.725 876.537 184.776C852.272 194.827 826.264 200 800 200L800 0H1000Z" fill="#1D1F22"/>
</svg>
